<svg width="316" height="91" viewBox="0 0 316 91" fill="none" xmlns="http://www.w3.org/2000/svg">
<g clip-path="url(#clip0_86_117)">
<path d="M65.9697 0H0V18.554H65.9697V0Z" fill="#FFFAFA"/>
<path d="M65.9697 72.4492H0V91.0032H65.9697V72.4492Z" fill="#FFFAFA"/>
<path d="M46.8271 36.2255V91.0039H65.9701V36.2255H46.8271Z" fill="#FFFAFA"/>
<path d="M80.7695 0.296448V72.1562H99.9125V0.296448H80.7695Z" fill="#FFFAFA"/>
<path d="M138.788 72.1562H99.9131V91.0048H138.788V72.1562Z" fill="#FFFAFA"/>
<path d="M52.1281 36.2227H32.1016V54.7767H52.1281V36.2227Z" fill="#FFFAFA"/>
<path d="M0 18.555L0 91.0039H19.143L19.143 18.555H0Z" fill="#FFFAFA"/>
<path d="M286.013 17.9638V72.7422H305.156V17.9638H286.013Z" fill="#FFFAFA"/>
<path d="M315.464 0H276V19.143H315.464V0Z" fill="#FFFAFA"/>
<path d="M315.464 71.8594H276V91.0024H315.464V71.8594Z" fill="#FFFAFA"/>
<path d="M184 19V91H203V19H184Z" fill="#FFFAFA"/>
<path d="M242 19V91H261V19H242Z" fill="#FFFAFA"/>
<path d="M242 51H203V70H242V51Z" fill="#FFFAFA"/>
<path d="M242 0H203V19H242V0Z" fill="#FFFAFA"/>
</g>
<defs>
<clipPath id="clip0_86_117">
<rect width="316" height="91" fill="white"/>
</clipPath>
</defs>
</svg>
